<svg width="260" height="260" viewBox="0 0 260 260" fill="none" xmlns="http://www.w3.org/2000/svg">
<path opacity="0.4" fill-rule="evenodd" clip-rule="evenodd" d="M237.571 203.019C239.282 200.503 240.907 197.924 242.443 195.286L64.7143 17.5574C62.076 19.0926 59.4967 20.7179 56.9806 22.4291L237.571 203.019ZM56.1417 23.0045C53.6688 24.7148 51.2581 26.5085 48.9136 28.3818L231.618 211.086C233.491 208.742 235.285 206.331 236.995 203.858L56.1417 23.0045ZM230.987 211.87L48.1303 29.0126C45.8162 30.8909 43.568 32.8471 41.3896 34.8773L225.123 218.61C227.153 216.432 229.109 214.184 230.987 211.87ZM224.438 219.34C222.395 221.498 220.279 223.587 218.094 225.601L34.3986 41.906C36.4132 39.7208 38.5017 37.6049 40.6603 35.5622L224.438 219.34ZM211.242 231.494C213.333 229.817 215.372 228.077 217.355 226.277L33.723 42.6445C31.9226 44.6276 30.1826 46.6665 28.506 48.7584L211.242 231.494ZM210.454 232.12C208.096 233.981 205.672 235.761 203.186 237.458L22.5424 56.8144C24.2388 54.3284 26.0192 51.9043 27.8795 49.5462L210.454 232.12ZM194.566 242.858C197.218 241.338 199.812 239.726 202.342 238.028L21.9716 57.6579C20.2738 60.1883 18.6625 62.7816 17.142 65.4336L194.566 242.858ZM193.664 243.37C190.952 244.897 188.179 246.329 185.351 247.662L12.3382 74.6495C13.6712 71.8208 15.1031 69.048 16.6296 66.3355L193.664 243.37ZM175.488 251.819C178.509 250.691 181.477 249.453 184.386 248.111L11.8885 75.614C10.5466 78.5234 9.30904 81.4908 8.18061 84.5115L175.488 251.819ZM174.455 252.2C171.327 253.339 168.144 254.36 164.909 255.26L4.74049 95.091C5.64003 91.8564 6.6615 88.6725 7.79963 85.5447L174.455 252.2ZM154.583 257.679C157.696 257.083 160.769 256.376 163.798 255.563L4.43695 96.2017C3.62353 99.2311 2.91683 102.304 2.32112 105.417L154.583 257.679ZM153.391 257.901C149.748 258.563 146.052 259.073 142.31 259.425L0.575184 117.69C0.926679 113.948 1.43681 110.252 2.09879 106.609L153.391 257.901ZM130 260C133.709 260 137.381 259.845 141.011 259.54L0.459733 118.989C0.155294 122.619 0 126.291 0 130C0 130.38 0.00163284 130.76 0.00489189 131.14L128.86 259.995C129.059 259.997 129.257 259.998 129.456 259.999C129.637 260 129.819 260 130 260ZM127.426 259.975C122.839 259.886 118.311 259.559 113.853 259.007L0.993027 146.147C0.440664 141.689 0.114049 137.161 0.0249743 132.574L127.426 259.975ZM98.1773 256.077C102.768 257.232 107.456 258.143 112.226 258.795L1.2049 147.774C1.85708 152.544 2.76805 157.232 3.9232 161.823L98.1773 256.077ZM96.2668 255.581C89.5034 253.768 82.9575 251.424 76.6767 248.596L11.4041 183.323C8.57579 177.043 6.23171 170.497 4.41948 163.733L96.2668 255.581ZM74.0387 247.372C47.2003 234.553 25.4471 212.8 12.628 185.961L74.0387 247.372ZM247.296 186.12C245.947 188.934 244.501 191.691 242.96 194.389L65.6113 17.0403C68.3086 15.4995 71.0664 14.0525 73.8802 12.7038L247.296 186.12ZM247.751 185.16C248.97 182.563 250.105 179.919 251.154 177.232L82.7679 8.84636C80.0805 9.89482 77.4366 11.0301 74.8395 12.2488L247.751 185.16ZM254.723 166.782C253.782 169.978 252.722 173.123 251.547 176.211L83.7888 8.45304C86.8772 7.2782 90.0219 6.21769 93.2179 5.27668L254.723 166.782ZM255.041 165.686C255.99 162.354 256.809 158.968 257.493 155.533L104.467 2.50651C101.032 3.19061 97.6461 4.01006 94.3145 4.95906L255.041 165.686ZM259.324 143.343C258.945 147.06 258.409 150.731 257.724 154.349L105.651 2.27642C109.269 1.59096 112.94 1.05538 116.657 0.676411L259.324 143.343ZM259.449 142.054C259.814 138.085 260 134.064 260 130L130 0C125.936 0 121.915 0.186506 117.946 0.551426L259.449 142.054ZM259.16 115.14C259.663 119.556 259.944 124.039 259.992 128.578L131.422 0.00761496C135.961 0.0562533 140.444 0.337494 144.86 0.839982L259.16 115.14ZM258.967 113.533C258.373 108.833 257.528 104.211 256.446 99.6808L160.319 3.55445C155.789 2.47223 151.167 1.62713 146.467 1.033L258.967 113.533ZM249.488 78.7034C252.126 84.8405 254.305 91.2215 255.982 97.8032L162.197 4.01793C168.779 5.69493 175.16 7.87412 181.297 10.5123L249.488 78.7034ZM248.365 76.166C235.369 47.6378 212.362 24.6314 183.834 11.6355L248.365 76.166Z" fill="url(#paint0_linear_11_104)"/>
<defs>
<linearGradient id="paint0_linear_11_104" x1="76.0796" y1="29.5455" x2="198.693" y2="237.102" gradientUnits="userSpaceOnUse">
<stop stop-color="#ED7B50"/>
<stop offset="0.53125" stop-color="#488AEA"/>
<stop offset="1" stop-color="#373737"/>
</linearGradient>
</defs>
</svg>
